<mxfile host="Electron" modified="2023-11-16T09:42:17.280Z" agent="Mozilla/5.0 (X11; Linux x86_64) AppleWebKit/537.36 (KHTML, like Gecko) draw.io/22.0.3 Chrome/114.0.5735.289 Electron/25.8.4 Safari/537.36" etag="I_n5PHoxdwdIX79q0nqX" version="22.0.3" type="device">
  <diagram id="C5RBs43oDa-KdzZeNtuy" name="Page-1">
    <mxGraphModel dx="1165" dy="661" grid="1" gridSize="10" guides="1" tooltips="1" connect="1" arrows="1" fold="1" page="1" pageScale="1" pageWidth="827" pageHeight="1169" math="0" shadow="0">
      <root>
        <mxCell id="WIyWlLk6GJQsqaUBKTNV-0" />
        <mxCell id="WIyWlLk6GJQsqaUBKTNV-1" parent="WIyWlLk6GJQsqaUBKTNV-0" />
        <mxCell id="ngqrdGA7n9Z4zl8MfVuP-1" value="2000" style="html=1;dashed=0;whiteSpace=wrap;shape=mxgraph.dfd.start;rounded=1;enumerate=1;" parent="WIyWlLk6GJQsqaUBKTNV-1" vertex="1">
          <mxGeometry x="230" y="100" width="60" height="30" as="geometry" />
        </mxCell>
        <mxCell id="ngqrdGA7n9Z4zl8MfVuP-2" value="1000" style="html=1;dashed=0;whiteSpace=wrap;shape=mxgraph.dfd.start;rounded=1;enumerate=1;" parent="WIyWlLk6GJQsqaUBKTNV-1" vertex="1">
          <mxGeometry x="230" y="160" width="60" height="30" as="geometry" />
        </mxCell>
        <mxCell id="ngqrdGA7n9Z4zl8MfVuP-3" value="2100" style="html=1;dashed=0;whiteSpace=wrap;shape=mxgraph.dfd.start;rounded=1;enumerate=1;" parent="WIyWlLk6GJQsqaUBKTNV-1" vertex="1">
          <mxGeometry x="230" y="220" width="60" height="30" as="geometry" />
        </mxCell>
        <mxCell id="ngqrdGA7n9Z4zl8MfVuP-4" value="1111" style="html=1;dashed=0;whiteSpace=wrap;shape=mxgraph.dfd.start;rounded=1;enumerate=1;" parent="WIyWlLk6GJQsqaUBKTNV-1" vertex="1">
          <mxGeometry x="470" y="500" width="60" height="30" as="geometry" />
        </mxCell>
        <mxCell id="ngqrdGA7n9Z4zl8MfVuP-5" value="1011" style="html=1;dashed=0;whiteSpace=wrap;shape=mxgraph.dfd.start;rounded=1;enumerate=1;" parent="WIyWlLk6GJQsqaUBKTNV-1" vertex="1">
          <mxGeometry x="340" y="410" width="60" height="30" as="geometry" />
        </mxCell>
        <mxCell id="ngqrdGA7n9Z4zl8MfVuP-6" value="2111" style="html=1;dashed=0;whiteSpace=wrap;shape=mxgraph.dfd.start;rounded=1;enumerate=1;" parent="WIyWlLk6GJQsqaUBKTNV-1" vertex="1">
          <mxGeometry x="200" y="490" width="60" height="30" as="geometry" />
        </mxCell>
        <mxCell id="ngqrdGA7n9Z4zl8MfVuP-7" value="1101" style="html=1;dashed=0;whiteSpace=wrap;shape=mxgraph.dfd.start;rounded=1;enumerate=1;" parent="WIyWlLk6GJQsqaUBKTNV-1" vertex="1">
          <mxGeometry x="10" y="390" width="60" height="30" as="geometry" />
        </mxCell>
        <mxCell id="ngqrdGA7n9Z4zl8MfVuP-8" value="1001" style="html=1;dashed=0;whiteSpace=wrap;shape=mxgraph.dfd.start;rounded=1;enumerate=1;" parent="WIyWlLk6GJQsqaUBKTNV-1" vertex="1">
          <mxGeometry x="370" y="250" width="60" height="30" as="geometry" />
        </mxCell>
        <mxCell id="ngqrdGA7n9Z4zl8MfVuP-9" value="2101" style="html=1;dashed=0;whiteSpace=wrap;shape=mxgraph.dfd.start;rounded=1;enumerate=1;" parent="WIyWlLk6GJQsqaUBKTNV-1" vertex="1">
          <mxGeometry x="200" y="330" width="90" height="50" as="geometry" />
        </mxCell>
        <mxCell id="ngqrdGA7n9Z4zl8MfVuP-10" value="1100" style="html=1;dashed=0;whiteSpace=wrap;shape=mxgraph.dfd.start;rounded=1;enumerate=1;" parent="WIyWlLk6GJQsqaUBKTNV-1" vertex="1">
          <mxGeometry x="120" y="270" width="60" height="30" as="geometry" />
        </mxCell>
        <mxCell id="ngqrdGA7n9Z4zl8MfVuP-11" value="" style="curved=1;endArrow=classic;html=1;rounded=1;entryX=0.616;entryY=-0.002;entryDx=0;entryDy=0;entryPerimeter=0;edgeStyle=orthogonalEdgeStyle;" parent="WIyWlLk6GJQsqaUBKTNV-1" target="ngqrdGA7n9Z4zl8MfVuP-1" edge="1">
          <mxGeometry width="50" height="50" relative="1" as="geometry">
            <mxPoint x="190" y="60" as="sourcePoint" />
            <mxPoint x="210" y="50" as="targetPoint" />
          </mxGeometry>
        </mxCell>
        <mxCell id="ngqrdGA7n9Z4zl8MfVuP-36" value="1" style="edgeLabel;html=1;align=center;verticalAlign=middle;resizable=0;points=[];" parent="ngqrdGA7n9Z4zl8MfVuP-11" vertex="1" connectable="0">
          <mxGeometry x="-0.3856" y="-5" relative="1" as="geometry">
            <mxPoint as="offset" />
          </mxGeometry>
        </mxCell>
        <mxCell id="ngqrdGA7n9Z4zl8MfVuP-14" style="edgeStyle=orthogonalEdgeStyle;rounded=1;orthogonalLoop=1;jettySize=auto;html=1;exitX=0;exitY=0.5;exitDx=0;exitDy=0;exitPerimeter=0;entryX=0.136;entryY=-0.121;entryDx=0;entryDy=0;entryPerimeter=0;" parent="WIyWlLk6GJQsqaUBKTNV-1" source="ngqrdGA7n9Z4zl8MfVuP-3" target="ngqrdGA7n9Z4zl8MfVuP-10" edge="1">
          <mxGeometry relative="1" as="geometry" />
        </mxCell>
        <mxCell id="ngqrdGA7n9Z4zl8MfVuP-39" value="p1" style="edgeLabel;html=1;align=center;verticalAlign=middle;resizable=0;points=[];" parent="ngqrdGA7n9Z4zl8MfVuP-14" vertex="1" connectable="0">
          <mxGeometry x="-0.2939" y="3" relative="1" as="geometry">
            <mxPoint as="offset" />
          </mxGeometry>
        </mxCell>
        <mxCell id="ngqrdGA7n9Z4zl8MfVuP-15" style="edgeStyle=orthogonalEdgeStyle;rounded=1;orthogonalLoop=1;jettySize=auto;html=1;exitX=0;exitY=0;exitDx=55.605000000000004;exitDy=4.395000000000001;exitPerimeter=0;entryX=0;entryY=0;entryDx=4.395;entryDy=25.604999999999997;entryPerimeter=0;" parent="WIyWlLk6GJQsqaUBKTNV-1" source="ngqrdGA7n9Z4zl8MfVuP-10" target="ngqrdGA7n9Z4zl8MfVuP-3" edge="1">
          <mxGeometry relative="1" as="geometry" />
        </mxCell>
        <mxCell id="ngqrdGA7n9Z4zl8MfVuP-42" value="p1" style="edgeLabel;html=1;align=center;verticalAlign=middle;resizable=0;points=[];" parent="ngqrdGA7n9Z4zl8MfVuP-15" vertex="1" connectable="0">
          <mxGeometry x="-0.0756" y="-2" relative="1" as="geometry">
            <mxPoint as="offset" />
          </mxGeometry>
        </mxCell>
        <mxCell id="ngqrdGA7n9Z4zl8MfVuP-16" style="edgeStyle=orthogonalEdgeStyle;rounded=1;orthogonalLoop=1;jettySize=auto;html=1;exitX=1;exitY=0.5;exitDx=0;exitDy=0;exitPerimeter=0;entryX=0.805;entryY=0.036;entryDx=0;entryDy=0;entryPerimeter=0;" parent="WIyWlLk6GJQsqaUBKTNV-1" source="ngqrdGA7n9Z4zl8MfVuP-1" target="ngqrdGA7n9Z4zl8MfVuP-2" edge="1">
          <mxGeometry relative="1" as="geometry" />
        </mxCell>
        <mxCell id="ngqrdGA7n9Z4zl8MfVuP-37" value="1" style="edgeLabel;html=1;align=center;verticalAlign=middle;resizable=0;points=[];" parent="ngqrdGA7n9Z4zl8MfVuP-16" vertex="1" connectable="0">
          <mxGeometry x="-0.2689" y="-1" relative="1" as="geometry">
            <mxPoint as="offset" />
          </mxGeometry>
        </mxCell>
        <mxCell id="ngqrdGA7n9Z4zl8MfVuP-17" style="edgeStyle=orthogonalEdgeStyle;rounded=1;orthogonalLoop=1;jettySize=auto;html=1;exitX=1;exitY=0.5;exitDx=0;exitDy=0;exitPerimeter=0;entryX=0;entryY=0;entryDx=55.605000000000004;entryDy=4.395000000000001;entryPerimeter=0;" parent="WIyWlLk6GJQsqaUBKTNV-1" source="ngqrdGA7n9Z4zl8MfVuP-2" target="ngqrdGA7n9Z4zl8MfVuP-3" edge="1">
          <mxGeometry relative="1" as="geometry" />
        </mxCell>
        <mxCell id="ngqrdGA7n9Z4zl8MfVuP-38" value="1" style="edgeLabel;html=1;align=center;verticalAlign=middle;resizable=0;points=[];" parent="ngqrdGA7n9Z4zl8MfVuP-17" vertex="1" connectable="0">
          <mxGeometry x="-0.1643" y="-1" relative="1" as="geometry">
            <mxPoint as="offset" />
          </mxGeometry>
        </mxCell>
        <mxCell id="ngqrdGA7n9Z4zl8MfVuP-18" style="edgeStyle=orthogonalEdgeStyle;rounded=1;orthogonalLoop=1;jettySize=auto;html=1;exitX=0;exitY=0;exitDx=55.605000000000004;exitDy=4.395000000000001;exitPerimeter=0;entryX=1;entryY=0.5;entryDx=0;entryDy=0;entryPerimeter=0;" parent="WIyWlLk6GJQsqaUBKTNV-1" source="ngqrdGA7n9Z4zl8MfVuP-8" target="ngqrdGA7n9Z4zl8MfVuP-3" edge="1">
          <mxGeometry relative="1" as="geometry">
            <Array as="points">
              <mxPoint x="426" y="230" />
              <mxPoint x="290" y="230" />
            </Array>
          </mxGeometry>
        </mxCell>
        <mxCell id="ngqrdGA7n9Z4zl8MfVuP-41" value="1-p2" style="edgeLabel;html=1;align=center;verticalAlign=middle;resizable=0;points=[];" parent="ngqrdGA7n9Z4zl8MfVuP-18" vertex="1" connectable="0">
          <mxGeometry x="0.0715" relative="1" as="geometry">
            <mxPoint as="offset" />
          </mxGeometry>
        </mxCell>
        <mxCell id="ngqrdGA7n9Z4zl8MfVuP-19" style="edgeStyle=orthogonalEdgeStyle;rounded=1;orthogonalLoop=1;jettySize=auto;html=1;exitX=0;exitY=0;exitDx=55.605000000000004;exitDy=25.604999999999997;exitPerimeter=0;entryX=0;entryY=0.5;entryDx=0;entryDy=0;entryPerimeter=0;" parent="WIyWlLk6GJQsqaUBKTNV-1" source="ngqrdGA7n9Z4zl8MfVuP-3" target="ngqrdGA7n9Z4zl8MfVuP-8" edge="1">
          <mxGeometry relative="1" as="geometry">
            <Array as="points">
              <mxPoint x="300" y="246" />
              <mxPoint x="300" y="260" />
              <mxPoint x="370" y="260" />
            </Array>
          </mxGeometry>
        </mxCell>
        <mxCell id="ngqrdGA7n9Z4zl8MfVuP-40" value="1-p1" style="edgeLabel;html=1;align=center;verticalAlign=middle;resizable=0;points=[];" parent="ngqrdGA7n9Z4zl8MfVuP-19" vertex="1" connectable="0">
          <mxGeometry x="-0.0648" relative="1" as="geometry">
            <mxPoint as="offset" />
          </mxGeometry>
        </mxCell>
        <mxCell id="ngqrdGA7n9Z4zl8MfVuP-26" style="edgeStyle=orthogonalEdgeStyle;rounded=1;orthogonalLoop=1;jettySize=auto;html=1;exitX=0.5;exitY=0.5;exitDx=0;exitDy=-15;exitPerimeter=0;entryX=0.158;entryY=0.004;entryDx=0;entryDy=0;entryPerimeter=0;" parent="WIyWlLk6GJQsqaUBKTNV-1" source="ngqrdGA7n9Z4zl8MfVuP-7" target="ngqrdGA7n9Z4zl8MfVuP-3" edge="1">
          <mxGeometry relative="1" as="geometry" />
        </mxCell>
        <mxCell id="ngqrdGA7n9Z4zl8MfVuP-61" value="p1(1-p2)" style="edgeLabel;html=1;align=center;verticalAlign=middle;resizable=0;points=[];" parent="ngqrdGA7n9Z4zl8MfVuP-26" vertex="1" connectable="0">
          <mxGeometry x="-0.4743" y="-2" relative="1" as="geometry">
            <mxPoint as="offset" />
          </mxGeometry>
        </mxCell>
        <mxCell id="ngqrdGA7n9Z4zl8MfVuP-28" style="edgeStyle=orthogonalEdgeStyle;rounded=1;orthogonalLoop=1;jettySize=auto;html=1;exitX=0;exitY=0.5;exitDx=0;exitDy=0;exitPerimeter=0;entryX=0.785;entryY=1.049;entryDx=0;entryDy=0;entryPerimeter=0;" parent="WIyWlLk6GJQsqaUBKTNV-1" source="ngqrdGA7n9Z4zl8MfVuP-5" target="ngqrdGA7n9Z4zl8MfVuP-9" edge="1">
          <mxGeometry relative="1" as="geometry" />
        </mxCell>
        <mxCell id="ngqrdGA7n9Z4zl8MfVuP-57" value="1-p2" style="edgeLabel;html=1;align=center;verticalAlign=middle;resizable=0;points=[];" parent="ngqrdGA7n9Z4zl8MfVuP-28" vertex="1" connectable="0">
          <mxGeometry x="0.5955" y="-1" relative="1" as="geometry">
            <mxPoint as="offset" />
          </mxGeometry>
        </mxCell>
        <mxCell id="ngqrdGA7n9Z4zl8MfVuP-29" style="edgeStyle=orthogonalEdgeStyle;rounded=1;orthogonalLoop=1;jettySize=auto;html=1;exitX=0;exitY=0;exitDx=4.395;exitDy=25.604999999999997;exitPerimeter=0;entryX=0.5;entryY=0.5;entryDx=0;entryDy=-15;entryPerimeter=0;" parent="WIyWlLk6GJQsqaUBKTNV-1" source="ngqrdGA7n9Z4zl8MfVuP-5" target="ngqrdGA7n9Z4zl8MfVuP-6" edge="1">
          <mxGeometry relative="1" as="geometry" />
        </mxCell>
        <mxCell id="ngqrdGA7n9Z4zl8MfVuP-64" value="p2" style="edgeLabel;html=1;align=center;verticalAlign=middle;resizable=0;points=[];" parent="ngqrdGA7n9Z4zl8MfVuP-29" vertex="1" connectable="0">
          <mxGeometry x="0.5227" y="2" relative="1" as="geometry">
            <mxPoint as="offset" />
          </mxGeometry>
        </mxCell>
        <mxCell id="ngqrdGA7n9Z4zl8MfVuP-30" style="edgeStyle=orthogonalEdgeStyle;rounded=1;orthogonalLoop=1;jettySize=auto;html=1;exitX=0;exitY=0;exitDx=55.605000000000004;exitDy=4.395000000000001;exitPerimeter=0;entryX=0.292;entryY=1.137;entryDx=0;entryDy=0;entryPerimeter=0;" parent="WIyWlLk6GJQsqaUBKTNV-1" source="ngqrdGA7n9Z4zl8MfVuP-6" target="ngqrdGA7n9Z4zl8MfVuP-5" edge="1">
          <mxGeometry relative="1" as="geometry" />
        </mxCell>
        <mxCell id="ngqrdGA7n9Z4zl8MfVuP-65" value="(1-p1)(1-p2) + (1-p1)p2" style="edgeLabel;html=1;align=center;verticalAlign=middle;resizable=0;points=[];" parent="ngqrdGA7n9Z4zl8MfVuP-30" vertex="1" connectable="0">
          <mxGeometry x="0.6545" y="-1" relative="1" as="geometry">
            <mxPoint as="offset" />
          </mxGeometry>
        </mxCell>
        <mxCell id="ngqrdGA7n9Z4zl8MfVuP-31" style="edgeStyle=orthogonalEdgeStyle;rounded=1;orthogonalLoop=1;jettySize=auto;html=1;exitX=0;exitY=0.5;exitDx=0;exitDy=0;exitPerimeter=0;entryX=0.87;entryY=1.038;entryDx=0;entryDy=0;entryPerimeter=0;" parent="WIyWlLk6GJQsqaUBKTNV-1" source="ngqrdGA7n9Z4zl8MfVuP-6" target="ngqrdGA7n9Z4zl8MfVuP-7" edge="1">
          <mxGeometry relative="1" as="geometry" />
        </mxCell>
        <mxCell id="ngqrdGA7n9Z4zl8MfVuP-63" value="p1(1-p2)" style="edgeLabel;html=1;align=center;verticalAlign=middle;resizable=0;points=[];" parent="ngqrdGA7n9Z4zl8MfVuP-31" vertex="1" connectable="0">
          <mxGeometry x="0.0058" y="-2" relative="1" as="geometry">
            <mxPoint as="offset" />
          </mxGeometry>
        </mxCell>
        <mxCell id="ngqrdGA7n9Z4zl8MfVuP-32" style="edgeStyle=orthogonalEdgeStyle;rounded=1;orthogonalLoop=1;jettySize=auto;html=1;exitX=0.5;exitY=0.5;exitDx=0;exitDy=15;exitPerimeter=0;entryX=0.167;entryY=1;entryDx=0;entryDy=0;entryPerimeter=0;" parent="WIyWlLk6GJQsqaUBKTNV-1" source="ngqrdGA7n9Z4zl8MfVuP-7" target="ngqrdGA7n9Z4zl8MfVuP-6" edge="1">
          <mxGeometry relative="1" as="geometry" />
        </mxCell>
        <mxCell id="ngqrdGA7n9Z4zl8MfVuP-62" value="(1-p1)p2" style="edgeLabel;html=1;align=center;verticalAlign=middle;resizable=0;points=[];" parent="ngqrdGA7n9Z4zl8MfVuP-32" vertex="1" connectable="0">
          <mxGeometry x="-0.6736" relative="1" as="geometry">
            <mxPoint as="offset" />
          </mxGeometry>
        </mxCell>
        <mxCell id="ngqrdGA7n9Z4zl8MfVuP-33" style="edgeStyle=orthogonalEdgeStyle;rounded=1;orthogonalLoop=1;jettySize=auto;html=1;exitX=1;exitY=0.5;exitDx=0;exitDy=0;exitPerimeter=0;entryX=0;entryY=0.5;entryDx=0;entryDy=0;entryPerimeter=0;" parent="WIyWlLk6GJQsqaUBKTNV-1" source="ngqrdGA7n9Z4zl8MfVuP-6" target="ngqrdGA7n9Z4zl8MfVuP-4" edge="1">
          <mxGeometry relative="1" as="geometry" />
        </mxCell>
        <mxCell id="ngqrdGA7n9Z4zl8MfVuP-67" value="p1p2" style="edgeLabel;html=1;align=center;verticalAlign=middle;resizable=0;points=[];" parent="ngqrdGA7n9Z4zl8MfVuP-33" vertex="1" connectable="0">
          <mxGeometry x="-0.2155" y="-1" relative="1" as="geometry">
            <mxPoint as="offset" />
          </mxGeometry>
        </mxCell>
        <mxCell id="ngqrdGA7n9Z4zl8MfVuP-34" style="edgeStyle=orthogonalEdgeStyle;rounded=1;orthogonalLoop=1;jettySize=auto;html=1;exitX=0;exitY=0;exitDx=4.395;exitDy=25.604999999999997;exitPerimeter=0;entryX=0.5;entryY=0.5;entryDx=0;entryDy=15;entryPerimeter=0;" parent="WIyWlLk6GJQsqaUBKTNV-1" source="ngqrdGA7n9Z4zl8MfVuP-4" target="ngqrdGA7n9Z4zl8MfVuP-6" edge="1">
          <mxGeometry relative="1" as="geometry">
            <Array as="points">
              <mxPoint x="474" y="540" />
              <mxPoint x="230" y="540" />
            </Array>
          </mxGeometry>
        </mxCell>
        <mxCell id="ngqrdGA7n9Z4zl8MfVuP-68" value="p1p2 + (1-p1)(1-p2) + (1-p1)p2" style="edgeLabel;html=1;align=center;verticalAlign=middle;resizable=0;points=[];" parent="ngqrdGA7n9Z4zl8MfVuP-34" vertex="1" connectable="0">
          <mxGeometry x="0.2993" y="3" relative="1" as="geometry">
            <mxPoint x="33" as="offset" />
          </mxGeometry>
        </mxCell>
        <mxCell id="ngqrdGA7n9Z4zl8MfVuP-43" style="edgeStyle=orthogonalEdgeStyle;rounded=1;orthogonalLoop=1;jettySize=auto;html=1;exitX=0;exitY=0;exitDx=4.395;exitDy=25.604999999999997;exitPerimeter=0;entryX=0.5;entryY=0.5;entryDx=0;entryDy=-25;entryPerimeter=0;" parent="WIyWlLk6GJQsqaUBKTNV-1" source="ngqrdGA7n9Z4zl8MfVuP-8" target="ngqrdGA7n9Z4zl8MfVuP-9" edge="1">
          <mxGeometry relative="1" as="geometry">
            <Array as="points">
              <mxPoint x="374" y="300" />
              <mxPoint x="245" y="300" />
            </Array>
          </mxGeometry>
        </mxCell>
        <mxCell id="ngqrdGA7n9Z4zl8MfVuP-47" value="p2" style="edgeLabel;html=1;align=center;verticalAlign=middle;resizable=0;points=[];" parent="ngqrdGA7n9Z4zl8MfVuP-43" vertex="1" connectable="0">
          <mxGeometry x="-0.0693" y="2" relative="1" as="geometry">
            <mxPoint as="offset" />
          </mxGeometry>
        </mxCell>
        <mxCell id="ngqrdGA7n9Z4zl8MfVuP-44" style="edgeStyle=orthogonalEdgeStyle;rounded=1;orthogonalLoop=1;jettySize=auto;html=1;exitX=0;exitY=0;exitDx=82.675;exitDy=7.324999999999999;exitPerimeter=0;entryX=0.634;entryY=0.954;entryDx=0;entryDy=0;entryPerimeter=0;" parent="WIyWlLk6GJQsqaUBKTNV-1" source="ngqrdGA7n9Z4zl8MfVuP-9" target="ngqrdGA7n9Z4zl8MfVuP-8" edge="1">
          <mxGeometry relative="1" as="geometry">
            <Array as="points">
              <mxPoint x="410" y="337" />
              <mxPoint x="410" y="281" />
              <mxPoint x="408" y="281" />
            </Array>
          </mxGeometry>
        </mxCell>
        <mxCell id="ngqrdGA7n9Z4zl8MfVuP-48" value="(1-p1)(1-p2)" style="edgeLabel;html=1;align=center;verticalAlign=middle;resizable=0;points=[];" parent="ngqrdGA7n9Z4zl8MfVuP-44" vertex="1" connectable="0">
          <mxGeometry x="0.4595" y="2" relative="1" as="geometry">
            <mxPoint as="offset" />
          </mxGeometry>
        </mxCell>
        <mxCell id="ngqrdGA7n9Z4zl8MfVuP-45" style="edgeStyle=orthogonalEdgeStyle;rounded=1;orthogonalLoop=1;jettySize=auto;html=1;exitX=1;exitY=0.5;exitDx=0;exitDy=0;exitPerimeter=0;entryX=0.326;entryY=-0.039;entryDx=0;entryDy=0;entryPerimeter=0;" parent="WIyWlLk6GJQsqaUBKTNV-1" source="ngqrdGA7n9Z4zl8MfVuP-10" target="ngqrdGA7n9Z4zl8MfVuP-9" edge="1">
          <mxGeometry relative="1" as="geometry" />
        </mxCell>
        <mxCell id="ngqrdGA7n9Z4zl8MfVuP-54" value="1-p1" style="edgeLabel;html=1;align=center;verticalAlign=middle;resizable=0;points=[];" parent="ngqrdGA7n9Z4zl8MfVuP-45" vertex="1" connectable="0">
          <mxGeometry x="0.2783" y="1" relative="1" as="geometry">
            <mxPoint as="offset" />
          </mxGeometry>
        </mxCell>
        <mxCell id="ngqrdGA7n9Z4zl8MfVuP-46" style="edgeStyle=orthogonalEdgeStyle;rounded=1;orthogonalLoop=1;jettySize=auto;html=1;exitX=0;exitY=0;exitDx=7.324999999999999;exitDy=7.324999999999999;exitPerimeter=0;entryX=0.5;entryY=0.5;entryDx=0;entryDy=15;entryPerimeter=0;" parent="WIyWlLk6GJQsqaUBKTNV-1" source="ngqrdGA7n9Z4zl8MfVuP-9" target="ngqrdGA7n9Z4zl8MfVuP-10" edge="1">
          <mxGeometry relative="1" as="geometry">
            <Array as="points">
              <mxPoint x="150" y="337" />
            </Array>
          </mxGeometry>
        </mxCell>
        <mxCell id="ngqrdGA7n9Z4zl8MfVuP-55" value="p1(1-p2)" style="edgeLabel;html=1;align=center;verticalAlign=middle;resizable=0;points=[];" parent="ngqrdGA7n9Z4zl8MfVuP-46" vertex="1" connectable="0">
          <mxGeometry x="0.4554" relative="1" as="geometry">
            <mxPoint as="offset" />
          </mxGeometry>
        </mxCell>
        <mxCell id="ngqrdGA7n9Z4zl8MfVuP-49" style="edgeStyle=orthogonalEdgeStyle;rounded=1;orthogonalLoop=1;jettySize=auto;html=1;exitX=0.5;exitY=0.5;exitDx=0;exitDy=-15;exitPerimeter=0;entryX=1.006;entryY=0.355;entryDx=0;entryDy=0;entryPerimeter=0;" parent="WIyWlLk6GJQsqaUBKTNV-1" source="ngqrdGA7n9Z4zl8MfVuP-4" target="ngqrdGA7n9Z4zl8MfVuP-9" edge="1">
          <mxGeometry relative="1" as="geometry" />
        </mxCell>
        <mxCell id="ngqrdGA7n9Z4zl8MfVuP-66" value="p1(1-p2)" style="edgeLabel;html=1;align=center;verticalAlign=middle;resizable=0;points=[];" parent="ngqrdGA7n9Z4zl8MfVuP-49" vertex="1" connectable="0">
          <mxGeometry x="-0.4283" relative="1" as="geometry">
            <mxPoint as="offset" />
          </mxGeometry>
        </mxCell>
        <mxCell id="ngqrdGA7n9Z4zl8MfVuP-51" style="edgeStyle=orthogonalEdgeStyle;rounded=1;orthogonalLoop=1;jettySize=auto;html=1;exitX=1;exitY=0.5;exitDx=0;exitDy=0;exitPerimeter=0;entryX=0.363;entryY=-0.107;entryDx=0;entryDy=0;entryPerimeter=0;" parent="WIyWlLk6GJQsqaUBKTNV-1" source="ngqrdGA7n9Z4zl8MfVuP-9" target="ngqrdGA7n9Z4zl8MfVuP-5" edge="1">
          <mxGeometry relative="1" as="geometry" />
        </mxCell>
        <mxCell id="ngqrdGA7n9Z4zl8MfVuP-56" value="(1-p1)p2" style="edgeLabel;html=1;align=center;verticalAlign=middle;resizable=0;points=[];" parent="ngqrdGA7n9Z4zl8MfVuP-51" vertex="1" connectable="0">
          <mxGeometry x="0.4476" y="1" relative="1" as="geometry">
            <mxPoint as="offset" />
          </mxGeometry>
        </mxCell>
        <mxCell id="ngqrdGA7n9Z4zl8MfVuP-52" style="edgeStyle=orthogonalEdgeStyle;rounded=1;orthogonalLoop=1;jettySize=auto;html=1;exitX=0;exitY=0.5;exitDx=0;exitDy=0;exitPerimeter=0;entryX=0.749;entryY=-0.097;entryDx=0;entryDy=0;entryPerimeter=0;" parent="WIyWlLk6GJQsqaUBKTNV-1" source="ngqrdGA7n9Z4zl8MfVuP-9" target="ngqrdGA7n9Z4zl8MfVuP-7" edge="1">
          <mxGeometry relative="1" as="geometry" />
        </mxCell>
        <mxCell id="ngqrdGA7n9Z4zl8MfVuP-58" value="p1p2" style="edgeLabel;html=1;align=center;verticalAlign=middle;resizable=0;points=[];" parent="ngqrdGA7n9Z4zl8MfVuP-52" vertex="1" connectable="0">
          <mxGeometry x="0.025" relative="1" as="geometry">
            <mxPoint as="offset" />
          </mxGeometry>
        </mxCell>
        <mxCell id="ngqrdGA7n9Z4zl8MfVuP-53" style="edgeStyle=orthogonalEdgeStyle;rounded=1;orthogonalLoop=1;jettySize=auto;html=1;exitX=1;exitY=0.5;exitDx=0;exitDy=0;exitPerimeter=0;entryX=0;entryY=0;entryDx=7.324999999999999;entryDy=42.675;entryPerimeter=0;" parent="WIyWlLk6GJQsqaUBKTNV-1" source="ngqrdGA7n9Z4zl8MfVuP-7" target="ngqrdGA7n9Z4zl8MfVuP-9" edge="1">
          <mxGeometry relative="1" as="geometry" />
        </mxCell>
        <mxCell id="ngqrdGA7n9Z4zl8MfVuP-60" value="p1p2 + (1-p1)(1-p2)" style="edgeLabel;html=1;align=center;verticalAlign=middle;resizable=0;points=[];" parent="ngqrdGA7n9Z4zl8MfVuP-53" vertex="1" connectable="0">
          <mxGeometry x="-0.2696" y="-1" relative="1" as="geometry">
            <mxPoint as="offset" />
          </mxGeometry>
        </mxCell>
        <mxCell id="ngqrdGA7n9Z4zl8MfVuP-69" value="" style="shape=image;verticalLabelPosition=bottom;labelBackgroundColor=default;verticalAlign=top;aspect=fixed;imageAspect=0;image=data:image/png,iVBORw0KGgoAAAANSUhEUgAAANQAAABeCAYAAABb9TqmAAAACXBIWXMAAA7EAAAOxAGVKw4bAAAMEElEQVR4nO2dX2gURxzHv2tyNdToiyY509gY8SnqUZG+mFCongjaJ8HCSgVFxSKS2Icg/nlJrSi0QlsFqYgE9bRUBNsa7UPEQi9BxBejFXzQi0Ybc2kMJifS3CW/PtjZ7r+7272d27tcfh9YyG52Z347M9/5/WZ2dk8hIgLDMFKYUWgDGKaUYEExjERYUAwjERYUw0iEBcUwEmFBMYxEWFAMIxEWFMNIhAXFMBJhQTGMRFhQDCMRFhTDSIQFxTASKS+0AVOVLVu24Pz58/jggw/Q09ODd955x3JOR0cHHj16pO0PDg7i1KlTfprJ+IzCr2+4R1EULF++HE+ePMHLly8BAH19faivr7ecp6eqqgrxeNw3Oxn/YQ/lknnz5kHfB6VSKQQCASxcuNBw/Ntvv8WjR4+waNGiQpjJFAgeQ7nk6NGjhv3y8nIsXbrUct4XX3wBdv7TDxaUS7Zv3245tmTJEsP+jRs3AACLFy+GoiioqanB5OSkL/YxhYUFJYFff/0V27Zt0/ZXr14NIkJHRwcAIB6Po6ysDBMTEwWykPELnpSQgKIoGcO78+fPY/PmzZgzZw5evXrlo2WM37CH8khtbW1WkXz22WdYu3YtRkdHfbKKKRTsoTxw5MgRfPLJJ1i2bFnWcwcGBlBbW8sTFSUOCypHfv/9d8yYMQMfffSRo/PHx8cxc+ZMFlSJwyFfDjx48AAvX760iGnfvn1przl9+jTWr1+fb9OYAsOCcsnAwAA+/PBDHDp0CMuXL9e26upqVFdXAwDKysrQ2tqqXTMxMYE9e/bg6tWr2rHe3l4oioIzZ874fg9M/uCQzyXm5UR6RFG+//776O/vBwBUVlZi//79Fu8lxlRdXV1YvXp1/gxmfIUFxTAS4ZCPYSTCgmIYibCgGEYiLChJDA0N4cSJE5g/fz4URbHdNm3ahAsXLuTNhnT5+r1NZ4p+UqKvrw8A8Pz5c7z33nsAgIULFxbOIB3Xrl3z9GwpFAqhp6cHs2bNkmJPsTTmfDapvr4+9PT0GI6tXLkSdXV1KC8vgtf7qIiIx+MUDocJgKvt+PHjvtqpqqoh/3A4TL29vY6v7+zstNxDNBr1bFcxVKdMGxKJhKWsnWzBYNBVfcik8DVA1gYKgFRVpc7OTorFYoZzk8kkxWIxOn78OAWDwbw0zHREo1FDXvF43HOakUjEkKYXSkVQ7e3ttu0hGo1SIpGwvSYWi9leFwqFPNvjhoLWgFlIXsRgLkyzEL2it1WGkMzo7c81/akuKHPn0tnZmXNasVjMEkX4QUFqIJlMGtxzMpmUlra+UmQVovCEwWBQSnrp0JdLLiHLVBaUPtqQ3Rnq05bZ1uzwvQbi8binRuMUWSIQnsOvHo6Icq58GYLasmWLp+tzsUHcb0tLi6e8M6H3WPmIMIj+GxLkJeU06HvgfPcURP+LIVdRJRIJXzyTGX05ucGroLq7u30fx8ka+969e5fa2tro2LFj9Ndff9mek+/2B8BfQfkpJkFLS0vOvZ/wcrKZmJjIeo4IXd2EP15s/eabb3yfGBHl61VMiqJYJiMWLVpke26unVU2NA8oNdUMCG/h1N3qb1xst27dyilv82yg01BTdqj3yy+/EADauXOn4/zdNLhcG4m5nHNF1HEkEsl6rqhfr+W7YcMGAkBjY2PasevXr2e0QzT+9vZ2T3nr0SatpKWYBbeVBYBevXpFRER37tzRrnfSu5sRlaeqqmG2LlOBikJPN03rlq6uLnrz5o0rQZmfyWXzsl573a+++kqKh3IyKRQKhVzlde3aNbpz545tfk1NTbbH586dm9VOWWj3LS3FDIjG6dQzXLx4kcbHxw3H/vzzTwJAhw4dyskGcwHqH66GQiFLGCpCLtm4EZTeBv0zsGAwaCv0YhEUkXXa2hy6Zhub3r9/nwDQ119/bfGgf//9t3ZeXV0dnTx50taOurq6tOmL8pSFsM2XtXxiqYiTj5kAABEhEAgYjjU2NgKA5bhTVFU17K9btw5EhEQigXg8jkAgAEVRcO/ePQDQvlleLDQ1NYGIkEwmUV1djcrKSiiKgu7u7kKbZov4NDURIRwOo6GhAYqiGNYyHjhwIGs6bW1tGBsb09JSFAXz5s3T/t/f34/PP//ccM3g4CAA4NixY2nTbWpqAgBp5RcMBt/+IU2iGRBhlldgipXdYH5omG37448/sk6g/PzzzxnTuHTpku09OPVQ9fX1ju2V0eN69VBuyzhTxCI81KlTpwzHBwcHCQDdvXvX9rqffvqJAFBNTU1We+FwvOcE7cG8lNSyICN8On36NFVWVuZ8fTpRm5cT6UMTZBm31NbW0tOnTwkAjYyM0MjICCmKov1tDltFmm4nJfSYQyn9hEWhBWVnQyKRMEwKidUPyDKGFYJKl0dra6sln0AgQABo69atjm2V+SzUN0GJRuDlgRpynJDQX6+vIDGdnkk0dg1acPPmTcN5dn+nS9OJoITQhWD0S5PC4bCt5ywmQem9VSgUsoz54HAMlS6PjRs3avuHDx8mAFRbW0uTk5OO7JQ9hiL6bzZZaooZyNQ4s6GqqqflKGKWT0yx2vXudoiOINsCy3wIStho17s7sSMXvArK/Kgj01sA2Wb5sgnq4MGDRER0+fJlAkAdHR2ubPXSHjOmKz3FNIiQy62XunLlCt2+fdtT3vplSHYzepkQU9eZGseCBQu0v2UISlR2Y2Ojbe+e6ToveBWU22eNmTorIahPP/3UcPzKlSsEgIaHh7U0Vq1a5cpO4Z1kjZ/0FGSlhFNu375Nv/32m+W4KEwnyFiLpw+1zJw5c8ZQ6V4FJfLKpbILLSi3NmTqrISggP8flfz4448EgN59911DfhUVFVRZWWnZ7MSar5USmj15STUNYm2ck5t5/PgxnTt3znL8hx9+cJyfPo73ij700gOAzp49a9gfGRmhyclJevjwoSUdALRjxw7L8V27dtmGom68ab4aiRvc2pAuPBSCevLkiSGMnD9/vnbO6OgoVVRUpN0aGxsNabppf7niew3oZ9XShQbDw8OGQtRvM2fOdJSPfpWBLPQTA6FQiPbt22dJv7y8PG2+4+PjBIDq6+u1Y+ZZu48//thwjaqqjhfnTkVBiWvMEUCmMVQu6B/k52u1OVERvA8l+41KfQPNxysXyWTSsjbQ3Lvu3buX/vnnn7RpxONxy8uV7e3ttuvbxDEnTFVBERk7wGg0Kk1Qeq/kR/kUtAbETI+YMMi150gmk5aHin58UyDT9w7EukFVVTN+J8M8c2cnKiG4bExlQRFZvbWXtMzPF2UuhM1EwWsgmUwahKUvgHRT5fF4nDo7O20btH4wn49ZnHREIhHb+7ATWjaxm0Xl9JlJtrz92rxi9xGbYDBIkUjEtk3EYjGKRCK27cEvIQkKLig90WjU9sMr2baNGzdqoYKefMfL+cQsKkD+q+FTAbsPrzjptGS9JeCWov4u3+vXrzE0NGT7HTbzt/m6u7vR3NyMaDSqLXxcs2YN7t+/j4GBAb9M9oSiKFBVVVtAmkqlEAgEEA6HUVVVhYsXL077H2xLpVJ49uwZAGBsbAyzZ8/GrFmzUFVVVWDL3lLUgnKLWVSiQU6VW+zr60NDQ4O2H4vFUFdXp4mqq6trytzLdKWkPsXc1NSEaDSK5uZmdHd3a18S/fLLLwtsmTP0rzyoqoqGhgYEAgG0tLSgq6sLAAw/5MYUHyXloQR6TwUAzc3NU7ZnF/eiZ6rey3SgJDzUhQsXoCgK1qxZg1QqZfBUAvHi4FRD/2JhKBQCIO+lOEY+JeOhhoaGtN+4Bd7+hu3o6KhBVCVyqzhx4gR2795daDMYG0pGUHpaW1vx/fffA3j7avKLFy8AlI6gmOKlJEI+M9999x2ICNFoVBMTAGzatKmAVjHTgZL0UGZSqRRWrFiB3t5e9lJMXpkWgtKTSqWK44e5mJJk2gmKYfJJSY6hGKZQsKAYRiIsKIaRCAuKYSTCgmIYibCgGEYiLCiGkQgLimEkwoJiGImwoBhGIiwohpEIC4phJMKCYhiJsKAYRiIsKIaRCAuKYSTCgmIYibCgGEYiLCiGkQgLimEkwoJiGImwoBhGIiwohpEIC4phJMKCYhiJsKAYRiIsKIaRyL/ZxAD6vGTb+QAAAABJRU5ErkJggg==;" parent="WIyWlLk6GJQsqaUBKTNV-1" vertex="1">
          <mxGeometry x="430" y="110" width="212" height="94" as="geometry" />
        </mxCell>
        <mxCell id="ngqrdGA7n9Z4zl8MfVuP-70" value="P1 = 0&lt;br&gt;P2 = 0&lt;br&gt;P3 = 2/44&lt;br&gt;P4 = 3/77&lt;br&gt;P5 = 2/11&lt;br&gt;P6 = 12/77&lt;br&gt;P7 = 1/7&lt;br&gt;P8 = 3/308&lt;br&gt;P9 = 32/77&lt;br&gt;P10 = 3/308" style="text;html=1;align=center;verticalAlign=middle;resizable=0;points=[];autosize=1;strokeColor=none;fillColor=none;" parent="WIyWlLk6GJQsqaUBKTNV-1" vertex="1">
          <mxGeometry x="550" y="230" width="90" height="160" as="geometry" />
        </mxCell>
        <mxCell id="9lMJYGfI21bC00Ku0wEG-0" value="Pбл = 0" style="text;html=1;align=center;verticalAlign=middle;resizable=0;points=[];autosize=1;strokeColor=none;fillColor=none;" parent="WIyWlLk6GJQsqaUBKTNV-1" vertex="1">
          <mxGeometry x="560" y="420" width="70" height="30" as="geometry" />
        </mxCell>
      </root>
    </mxGraphModel>
  </diagram>
</mxfile>
